<svg width="81" height="80" viewBox="0 0 81 80" fill="none" xmlns="http://www.w3.org/2000/svg">
<rect x="0.5" width="80" height="80" rx="40" fill="#C7D4E3"/>
<path d="M49.9813 21.8029C49.0898 24.2013 54.0868 31.3464 59.9882 29.2539C60.9743 28.9054 57.6232 27.6154 54.767 25.6247C52.3964 23.9696 50.2167 21.1764 49.9813 21.8047V21.8029Z" fill="#656880"/>
<path d="M30.7459 21.8029C31.6393 24.2013 26.6405 31.3464 20.7409 29.2539C19.753 28.9054 23.1059 27.6154 25.9621 25.6247C28.3308 23.9696 30.5124 21.1764 30.7459 21.8047V21.8029Z" fill="#656880"/>
<path d="M65.4819 37.4407C67.0833 38.7937 64.7016 46.0779 58.3293 46.0779C51.9571 46.0779 49.6977 38.8845 51.0211 37.4407C52.1647 36.1933 53.5696 41.9409 58.1736 41.9409C62.7777 41.9409 64.1288 36.2971 65.4819 37.4407Z" fill="#656880"/>
<path d="M30.1806 37.4407C31.782 38.7937 29.4003 46.0779 23.028 46.0779C16.6558 46.0779 14.3983 38.8845 15.7198 37.4407C16.8652 36.1933 18.2683 41.9409 22.8723 41.9409C27.4764 41.9409 28.8276 36.2971 30.1806 37.4407Z" fill="#656880"/>
<path d="M31.3575 55.564C29.6666 57.9471 32.1098 59.7853 33.7154 57.5729C36.8062 53.3147 45.1306 53.6715 48.266 57.5729C49.9685 59.6903 52.1558 58.0809 50.6258 55.564C47.025 49.6441 36.0558 48.9422 31.3575 55.564Z" fill="#434765"/>
</svg>
