<svg width="81" height="80" viewBox="0 0 81 80" fill="none" xmlns="http://www.w3.org/2000/svg">
<rect x="0.5" width="80" height="80" rx="40" fill="#FFCCD2"/>
<path d="M18.2196 35.1921C16.3065 33.5579 19.1523 26.2857 26.7639 26.2857C34.3754 26.2857 37.0756 33.4476 35.4946 35.1921C34.1274 36.6976 32.4486 30.5217 26.9504 30.5217C21.4522 30.5217 19.837 36.5735 18.2196 35.1921Z" fill="#541300"/>
<path d="M47.9339 35.1921C46.0208 33.5579 48.8666 26.2857 56.4781 26.2857C64.0897 26.2857 66.7899 33.4476 65.2089 35.1921C63.8417 36.6976 62.1652 30.5217 56.6647 30.5217C51.1642 30.5217 49.5491 36.5735 47.9339 35.1921Z" fill="#541300"/>
<path d="M31.6949 44.2621C33.0732 43.1508 48.4418 43.1508 49.8362 44.2621C51.2306 45.3734 48.8758 58.8572 40.9756 58.8572C33.0755 58.8572 30.3189 45.3734 31.6972 44.2621H31.6949Z" fill="#872A2A"/>
<path d="M40.7209 51.9205C40.0327 51.9763 37.1577 49.387 35.2997 50.6181C33.4418 51.8469 36.9298 57.2397 40.8242 57.1415C44.7186 57.0456 47.3564 51.7399 45.7216 50.6181C44.0891 49.494 42.0315 51.8135 40.7209 51.9205Z" fill="#F982B3"/>
</svg>
