<svg width="81" height="80" viewBox="0 0 81 80" fill="none" xmlns="http://www.w3.org/2000/svg">
<rect x="0.5" width="80" height="80" rx="40" fill="#EFBFD6"/>
<g opacity="0.6">
<g opacity="0.6">
<path d="M24.2442 45.9587C24.2442 49.3902 21.2316 52.1728 17.515 52.1728C13.7983 52.1728 10.7857 49.3902 10.7857 45.9587C10.7857 42.5272 13.7983 39.7466 17.515 39.7466C21.2316 39.7466 24.2442 42.5272 24.2442 45.9587Z" fill="#FF5F82"/>
</g>
<g opacity="0.6">
<path d="M70.2142 45.9588C70.2142 49.3903 67.2016 52.1728 63.485 52.1728C59.7684 52.1728 56.7557 49.3903 56.7557 45.9588C56.7557 42.5273 59.7684 39.7467 63.485 39.7467C67.2016 39.7467 70.2142 42.5273 70.2142 45.9588Z" fill="#FF5F82"/>
</g>
</g>
<path d="M13.3007 36.0358C11.58 34.5806 14.1403 27.4286 20.9915 27.4286C27.8427 27.4286 30.2712 34.4843 28.8475 36.0358C27.6165 37.377 26.1082 31.8767 21.1586 31.8767C16.2091 31.8767 14.7558 37.2668 13.3026 36.0358H13.3007Z" fill="#541300"/>
<path d="M51.2516 36.0359C49.5309 34.5807 52.0913 27.4286 58.9405 27.4286C65.7897 27.4286 68.2202 34.4843 66.7985 36.0359C65.5675 37.377 64.0572 31.8768 59.1076 31.8768C54.158 31.8768 52.7048 37.2669 51.2516 36.0359Z" fill="#541300"/>
<path d="M51.342 48.4246C53.277 46.0235 50.4807 44.1711 48.642 46.3991C45.8595 49.7736 34.8217 49.5042 31.9861 46.3991C30.0373 44.2655 27.532 45.8859 29.2861 48.4246C32.7609 53.4528 46.6087 54.2925 51.342 48.4246Z" fill="#872A2A"/>
</svg>
