<svg width="61" height="61" viewBox="0 0 61 61" fill="none" xmlns="http://www.w3.org/2000/svg">
<path d="M3.8125 36.4219C1.80729 34.4167 0.795573 32.3932 0.777344 30.3516C0.759115 28.2917 1.74349 26.2591 3.73047 24.2539L24.6211 3.39062C26.6081 1.38542 28.6315 0.391927 30.6914 0.410156C32.7513 0.428385 34.793 1.4401 36.8164 3.44531L57.5703 24.1992C59.5755 26.2044 60.5781 28.2461 60.5781 30.3242C60.5964 32.3841 59.6029 34.4076 57.5977 36.3945L36.7344 57.2578C34.7656 59.2448 32.7422 60.2292 30.6641 60.2109C28.6042 60.2109 26.5716 59.2083 24.5664 57.2031L3.8125 36.4219ZM27.8477 43.1211C28.8685 43.1211 29.6888 42.6471 30.3086 41.6992L42.3945 22.9688C42.5951 22.6771 42.7591 22.3763 42.8867 22.0664C43.0143 21.7383 43.0781 21.4193 43.0781 21.1094C43.0781 20.3984 42.8138 19.8242 42.2852 19.3867C41.7565 18.9492 41.1549 18.7305 40.4805 18.7305C39.6055 18.7305 38.8763 19.2044 38.293 20.1523L27.7656 36.9961L22.8711 30.8711C22.543 30.4518 22.2057 30.151 21.8594 29.9688C21.513 29.7865 21.1302 29.6953 20.7109 29.6953C20.0182 29.6953 19.4258 29.9414 18.9336 30.4336C18.4596 30.9258 18.2227 31.5182 18.2227 32.2109C18.2227 32.8854 18.4688 33.5234 18.9609 34.125L25.2227 41.7539C25.6055 42.2096 26.0065 42.556 26.4258 42.793C26.8451 43.0117 27.319 43.1211 27.8477 43.1211Z" fill="url(#paint0_linear_201_62600)"/>
<defs>
<linearGradient id="paint0_linear_201_62600" x1="31" y1="1" x2="31" y2="57" gradientUnits="userSpaceOnUse">
<stop stop-color="#FFC372"/>
<stop offset="1" stop-color="#DD583D"/>
</linearGradient>
</defs>
</svg>
