<svg width="11" height="18" viewBox="0 0 11 18" fill="none" xmlns="http://www.w3.org/2000/svg">
<path d="M10.7109 8.94922C10.7109 9.28125 10.5938 9.56445 10.3301 9.81836L2.71289 17.2695C2.49805 17.4844 2.23438 17.5918 1.92188 17.5918C1.28711 17.5918 0.779297 17.1035 0.779297 16.459C0.779297 16.1465 0.916016 15.8633 1.12109 15.6484L7.99609 8.94922L1.12109 2.25C0.90625 2.02539 0.779297 1.74219 0.779297 1.42969C0.779297 0.794922 1.28711 0.306641 1.92188 0.306641C2.23438 0.306641 2.49805 0.414062 2.71289 0.628906L10.3301 8.08008C10.584 8.33398 10.7109 8.61719 10.7109 8.94922Z" fill="#D6D8DD"/>
</svg>
