<svg width="25" height="24" viewBox="0 0 25 24" fill="none" xmlns="http://www.w3.org/2000/svg">
<g clip-path="url(#clip0_462_2075)">
<path d="M18.3203 16.0215L9.32617 7.02734C9.85352 5.89453 10.4004 4.41992 11.0352 1.91992C11.5137 0.123047 13.1934 -0.267578 14.1992 0.738281L19.209 5.75781C19.0332 7.61328 18.2422 8.77539 17.0801 9.94727C16.9434 10.0742 16.9531 10.25 17.041 10.3379C17.5977 10.8945 20.4883 9.3418 21.5039 8.0332L22.0508 8.59961C23.1934 9.77148 23.2324 11.1094 22.0996 12.2422L18.3203 16.0215ZM3.26172 22.4277C1.68945 20.8652 1.66992 18.8242 3.22266 17.2715C4.375 16.1191 6.94336 14.9863 8.30078 14.127L6.01562 11.8516C5.24414 11.0801 5.24414 10.1621 5.99609 9.41016L6.81641 8.58984C7.57812 7.82812 8.47656 7.83789 9.25781 8.61914L17.0703 16.4316C17.8516 17.2129 17.8613 18.0918 17.0996 18.8633L16.2793 19.6934C15.5371 20.4453 14.6094 20.4453 13.8379 19.6641L11.5625 17.3789C10.6934 18.7461 9.57031 21.3145 8.4082 22.4668C6.86523 24.0098 4.82422 24 3.26172 22.4277ZM5.92773 21.041C6.57227 21.041 7.09961 20.5137 7.09961 19.8691C7.09961 19.2246 6.57227 18.6875 5.92773 18.6875C5.2832 18.6875 4.74609 19.2246 4.74609 19.8691C4.74609 20.5137 5.2832 21.041 5.92773 21.041Z" fill="#BBBBBB"/>
</g>
<defs>
<clipPath id="clip0_462_2075">
<rect width="24" height="24" fill="white" transform="translate(0.5)"/>
</clipPath>
</defs>
</svg>
