<svg width="16" height="17" viewBox="0 0 16 17" fill="none" xmlns="http://www.w3.org/2000/svg">
<path d="M7.43368 15.8333C4.42586 15.8333 2.42716 13.8346 2.42716 10.6185V4.85024C2.42716 4.01691 2.99357 3.43097 3.78784 3.43097C4.01571 3.43097 4.23055 3.50258 4.3868 3.6393V3.10545C4.3868 2.30467 4.93368 1.75128 5.72795 1.75128C5.93628 1.75128 6.1381 1.81639 6.30086 1.94659C6.45711 1.31508 6.95842 0.911437 7.61597 0.911437C8.29956 0.911437 8.78784 1.30206 8.93758 1.95961C9.11336 1.82941 9.32821 1.75128 9.56258 1.75128C10.422 1.75128 10.9949 2.31769 10.9949 3.18357V8.04685C10.9949 8.07941 11.0079 8.09894 11.0404 8.09894C11.06 8.09894 11.0795 8.08592 11.086 8.05988L11.392 7.3242C11.6134 6.8229 12.0561 6.56248 12.5248 6.56248C13.3061 6.56248 13.8855 7.1354 13.8855 7.91665C13.8855 8.138 13.8399 8.37889 13.7488 8.62628L12.5834 11.9075C11.6524 14.5117 9.91414 15.8333 7.43368 15.8333ZM7.39461 14.5898C9.32821 14.5898 10.6694 13.7239 11.4766 11.5169L12.7071 8.17055C12.7983 7.91014 12.7266 7.71482 12.5248 7.64321C12.3425 7.57159 12.1342 7.64321 12.03 7.87758L11.0925 9.98045C10.9363 10.3385 10.6759 10.4687 10.3959 10.4752C10.0639 10.4752 9.79045 10.2474 9.79045 9.83722V3.30076C9.79045 3.0729 9.64071 2.91665 9.41935 2.91665C9.20451 2.91665 9.04826 3.0729 9.04826 3.30076V7.8906C9.04826 8.18357 8.80737 8.41144 8.50789 8.41144C8.22144 8.41144 7.98055 8.18357 7.98055 7.8906V2.46092C7.98055 2.23956 7.8243 2.0768 7.60946 2.0768C7.3881 2.0768 7.23185 2.23956 7.23185 2.46092V8.02081C7.23185 8.32029 6.98446 8.54165 6.698 8.54165C6.41154 8.54165 6.16414 8.32029 6.16414 8.02081V3.30076C6.16414 3.0729 6.00789 2.91665 5.78654 2.91665C5.56519 2.91665 5.42196 3.0729 5.42196 3.30076V8.36586C5.42196 8.66534 5.17456 8.8867 4.88159 8.8867C4.59513 8.8867 4.34774 8.66534 4.34774 8.36586V4.99347C4.34774 4.7656 4.19149 4.60935 3.97013 4.60935C3.75529 4.60935 3.60555 4.7656 3.60555 4.99347V10.5013C3.60555 13.0989 5.04435 14.5898 7.39461 14.5898Z" fill="#246B56"/>
</svg>
