<svg width="14" height="14" viewBox="0 0 14 14" fill="none" xmlns="http://www.w3.org/2000/svg">
<path d="M0.528076 12.8922C0.0749512 12.4469 0.0905762 11.6578 0.512451 11.2359L4.9812 6.76718L0.512451 2.31406C0.0905762 1.88437 0.0749512 1.10312 0.528076 0.649994C0.981201 0.189056 1.77026 0.204681 2.19214 0.634369L6.65308 5.09531L11.114 0.634369C11.5515 0.196869 12.3171 0.196869 12.7703 0.649994C13.2312 1.10312 13.2312 1.86874 12.7859 2.31406L8.33276 6.76718L12.7859 11.2281C13.2312 11.6734 13.2234 12.4312 12.7703 12.8922C12.325 13.3453 11.5515 13.3453 11.114 12.9078L6.65308 8.44687L2.19214 12.9078C1.77026 13.3375 0.989014 13.3453 0.528076 12.8922Z" fill="#BBBBBB"/>
</svg>
