<svg width="24" height="24" viewBox="0 0 24 24" fill="none" xmlns="http://www.w3.org/2000/svg">
<path d="M6.03906 17.1016C4.30469 17.1016 3.39062 16.1953 3.39062 14.4766V6.46875C3.39062 4.75781 4.30469 3.85156 6.03906 3.85156H14C15.7266 3.85156 16.6484 4.75781 16.6484 6.46875V7.75H17.9609C19.6875 7.75 20.6094 8.66406 20.6094 10.375V18.2656C20.6094 19.9766 19.6875 20.8906 17.9609 20.8906H10.1172C8.38281 20.8906 7.46875 19.9844 7.46875 18.2656V17.1016H6.03906ZM6.1875 15.3672H7.46875V10.375C7.46875 8.66406 8.38281 7.75 10.1172 7.75H14.9062V6.65625C14.9062 5.9375 14.5312 5.58594 13.8516 5.58594H6.1875C5.5 5.58594 5.13281 5.9375 5.13281 6.65625V14.2969C5.13281 15.0156 5.5 15.3672 6.1875 15.3672ZM14.4453 17.6406C14.6094 17.6406 14.7344 17.5234 14.7734 17.3594C15.1875 14.9609 15.4375 14.5312 17.9062 14.2031C18.0859 14.1875 18.2109 14.0469 18.2109 13.875C18.2109 13.7109 18.0859 13.5781 17.9062 13.5547C15.4688 13.2266 15.1406 12.7891 14.7734 10.4141C14.7344 10.2422 14.6094 10.1172 14.4453 10.1172C14.2812 10.1172 14.1484 10.2344 14.1172 10.4062C13.7109 12.8125 13.4453 13.2266 10.9844 13.5547C10.8047 13.5781 10.6797 13.7109 10.6797 13.875C10.6797 14.0469 10.8047 14.1797 10.9844 14.2031C13.4219 14.5078 13.7422 14.9453 14.1172 17.3516C14.1484 17.5234 14.2734 17.6406 14.4453 17.6406ZM11.1328 18.9766C11.25 18.9766 11.3516 18.8984 11.375 18.7812C11.5859 17.5859 11.5234 17.5469 12.8203 17.3438C12.9375 17.3203 13.0234 17.2188 13.0234 17.1016C13.0234 16.9844 12.9375 16.8828 12.8203 16.8672C11.5312 16.6641 11.5781 16.625 11.375 15.4453C11.3516 15.3125 11.2656 15.2188 11.1328 15.2188C11.0078 15.2188 10.9297 15.3125 10.8906 15.4453C10.6797 16.6094 10.75 16.6406 9.46094 16.8672C9.33594 16.8906 9.25 16.9844 9.25 17.1016C9.25 17.2344 9.33594 17.3203 9.48438 17.3438C10.75 17.5391 10.6797 17.5781 10.8906 18.7578C10.9297 18.8906 11.0078 18.9766 11.1328 18.9766Z" fill="url(#paint0_linear_200_52448)"/>
<defs>
<linearGradient id="paint0_linear_200_52448" x1="12" y1="0" x2="12" y2="24" gradientUnits="userSpaceOnUse">
<stop stop-color="#810085"/>
<stop offset="1" stop-color="#FCB1FF"/>
</linearGradient>
</defs>
</svg>
