<svg width="24" height="24" viewBox="0 0 24 24" fill="none" xmlns="http://www.w3.org/2000/svg">
<g clip-path="url(#clip0_200_56389)">
<path d="M7.51758 22.0664C6.00391 22.0664 5.04688 21.168 4.97852 19.6641L4.31445 5.58203H3.23047C2.76172 5.58203 2.37109 5.21094 2.37109 4.72266C2.37109 4.24414 2.76172 3.87305 3.23047 3.87305H7.56641V2.4082C7.56641 0.914062 8.52344 0.0253906 10.1348 0.0253906H13.8457C15.4668 0.0253906 16.4141 0.914062 16.4141 2.4082V3.87305H20.7598C21.248 3.87305 21.6289 4.24414 21.6289 4.72266C21.6289 5.21094 21.248 5.58203 20.7598 5.58203H19.6855L19.0215 19.6543C18.9531 21.1582 17.9863 22.0664 16.4922 22.0664H7.51758ZM9.36328 2.49609V3.87305H14.6172V2.49609C14.6172 1.98828 14.2656 1.66602 13.7188 1.66602H10.2617C9.71484 1.66602 9.36328 1.98828 9.36328 2.49609ZM9.00195 19.0391C9.43164 19.0391 9.71484 18.7656 9.69531 18.3652L9.39258 7.75C9.38281 7.33008 9.08984 7.07617 8.68945 7.07617C8.25977 7.07617 7.98633 7.33984 7.99609 7.75L8.28906 18.375C8.30859 18.7852 8.58203 19.0391 9.00195 19.0391ZM12 19.0391C12.4199 19.0391 12.7129 18.7754 12.7129 18.375V7.75C12.7129 7.33984 12.4199 7.07617 12 7.07617C11.5801 7.07617 11.2871 7.33984 11.2871 7.75V18.375C11.2871 18.7754 11.5801 19.0391 12 19.0391ZM14.998 19.0391C15.4082 19.0391 15.6816 18.7852 15.7012 18.375L16.0039 7.75C16.0137 7.33984 15.7402 7.07617 15.3105 7.07617C14.9004 7.07617 14.6172 7.33984 14.6074 7.75L14.2949 18.3652C14.2852 18.7754 14.5684 19.0391 14.998 19.0391Z" fill="#BBBBBB"/>
</g>
<defs>
<clipPath id="clip0_200_56389">
<rect width="24" height="24" fill="white"/>
</clipPath>
</defs>
</svg>
