<svg width="31" height="21" viewBox="0 0 31 21" fill="none" xmlns="http://www.w3.org/2000/svg">
<path d="M15.2969 20.4062C13.8516 20.4062 12.4766 20.2266 11.1719 19.8672C9.875 19.5156 8.67188 19.0508 7.5625 18.4727C6.45312 17.8867 5.45312 17.2461 4.5625 16.5508C3.67969 15.8477 2.92578 15.1445 2.30078 14.4414C1.67578 13.7305 1.19531 13.0742 0.859375 12.4727C0.53125 11.8711 0.367188 11.3828 0.367188 11.0078C0.367188 10.5625 0.597656 9.96484 1.05859 9.21484C1.51953 8.45703 2.17578 7.64844 3.02734 6.78906C3.88672 5.92969 4.90234 5.13672 6.07422 4.41016L9.8125 8.17188C9.58594 8.59375 9.41016 9.04688 9.28516 9.53125C9.16797 10.0078 9.10938 10.5 9.10938 11.0078C9.11719 12.1328 9.39844 13.1602 9.95312 14.0898C10.5078 15.0195 11.25 15.7656 12.1797 16.3281C13.1094 16.8906 14.1484 17.1719 15.2969 17.1719C15.8047 17.1719 16.293 17.1133 16.7617 16.9961C17.2383 16.8711 17.6875 16.6953 18.1094 16.4688L21.0039 19.3633C20.1523 19.6914 19.2461 19.9453 18.2852 20.125C17.332 20.3125 16.3359 20.4062 15.2969 20.4062ZM24.7773 17.4648L20.8867 13.5039C21.0742 13.1289 21.2188 12.7305 21.3203 12.3086C21.4219 11.8867 21.4727 11.4531 21.4727 11.0078C21.4727 9.86719 21.1953 8.83203 20.6406 7.90234C20.0859 6.97266 19.3398 6.23438 18.4023 5.6875C17.4648 5.13281 16.4297 4.85547 15.2969 4.85547C14.8438 4.85547 14.4102 4.90625 13.9961 5.00781C13.582 5.10156 13.1836 5.23438 12.8008 5.40625L9.91797 2.53516C10.7383 2.24609 11.5977 2.02344 12.4961 1.86719C13.3945 1.70312 14.3281 1.62109 15.2969 1.62109C16.7578 1.62109 18.1367 1.80078 19.4336 2.16016C20.7383 2.51172 21.9453 2.98047 23.0547 3.56641C24.1719 4.14453 25.1719 4.78516 26.0547 5.48828C26.9375 6.18359 27.6875 6.88672 28.3047 7.59766C28.9219 8.30078 29.3945 8.95312 29.7227 9.55469C30.0508 10.1562 30.2148 10.6406 30.2148 11.0078C30.2148 11.4453 29.9883 12.0352 29.5352 12.7773C29.0898 13.5195 28.4609 14.3086 27.6484 15.1445C26.8359 15.9727 25.8789 16.7461 24.7773 17.4648ZM11.957 10.7969C11.957 10.7266 11.9609 10.6523 11.9688 10.5742C11.9766 10.4961 11.9805 10.418 11.9805 10.3398L15.7422 14.1016C15.6719 14.1094 15.5977 14.1172 15.5195 14.125C15.4492 14.125 15.3789 14.125 15.3086 14.125C14.6914 14.125 14.1289 13.9766 13.6211 13.6797C13.1133 13.375 12.707 12.9727 12.4023 12.4727C12.1055 11.9648 11.957 11.4062 11.957 10.7969ZM18.6367 10.8086C18.6367 10.8867 18.6328 10.9609 18.625 11.0312C18.625 11.0938 18.6211 11.1602 18.6133 11.2305L14.8984 7.51562C14.9609 7.50781 15.0273 7.50391 15.0977 7.50391C15.168 7.49609 15.2344 7.49219 15.2969 7.49219C15.9219 7.49219 16.4844 7.64062 16.9844 7.9375C17.4844 8.23438 17.8828 8.63672 18.1797 9.14453C18.4844 9.64453 18.6367 10.1992 18.6367 10.8086ZM24.0039 20.6172L5.38281 2.00781C5.23438 1.85937 5.16016 1.67578 5.16016 1.45703C5.16016 1.23828 5.23438 1.05859 5.38281 0.917969C5.53125 0.761719 5.71484 0.683594 5.93359 0.683594C6.15234 0.683594 6.33984 0.761719 6.49609 0.917969L25.0938 19.5156C25.25 19.6719 25.3281 19.8516 25.3281 20.0547C25.3359 20.2578 25.2578 20.4453 25.0938 20.6172C24.9375 20.7734 24.7539 20.8477 24.543 20.8398C24.3398 20.8398 24.1602 20.7656 24.0039 20.6172Z" fill="#BBBBBB"/>
</svg>
