<svg width="31" height="20" viewBox="0 0 31 20" fill="none" xmlns="http://www.w3.org/2000/svg">
<path d="M15.2969 19.4062C13.8516 19.4062 12.4766 19.2266 11.1719 18.8672C9.875 18.5156 8.67188 18.0508 7.5625 17.4727C6.45312 16.8867 5.45312 16.2461 4.5625 15.5508C3.67969 14.8477 2.92578 14.1445 2.30078 13.4414C1.67578 12.7305 1.19531 12.0742 0.859375 11.4727C0.53125 10.8711 0.367188 10.3828 0.367188 10.0078C0.367188 9.64062 0.53125 9.15625 0.859375 8.55469C1.19531 7.95312 1.67578 7.30078 2.30078 6.59766C2.92578 5.88672 3.67969 5.18359 4.5625 4.48828C5.45312 3.78516 6.45312 3.14453 7.5625 2.56641C8.67188 1.98047 9.875 1.51172 11.1719 1.16016C12.4766 0.800781 13.8516 0.621094 15.2969 0.621094C16.7578 0.621094 18.1367 0.800781 19.4336 1.16016C20.7383 1.51172 21.9453 1.98047 23.0547 2.56641C24.1719 3.14453 25.1719 3.78516 26.0547 4.48828C26.9375 5.18359 27.6875 5.88672 28.3047 6.59766C28.9219 7.30078 29.3945 7.95312 29.7227 8.55469C30.0508 9.15625 30.2148 9.64062 30.2148 10.0078C30.2148 10.3828 30.0508 10.8711 29.7227 11.4727C29.3945 12.0742 28.9219 12.7305 28.3047 13.4414C27.6875 14.1445 26.9375 14.8477 26.0547 15.5508C25.1797 16.2461 24.1875 16.8867 23.0781 17.4727C21.9688 18.0508 20.7578 18.5156 19.4453 18.8672C18.1406 19.2266 16.7578 19.4062 15.2969 19.4062ZM15.2969 16.1719C16.1484 16.1719 16.9453 16.0117 17.6875 15.6914C18.4375 15.3633 19.0938 14.918 19.6562 14.3555C20.2266 13.7852 20.6719 13.1289 20.9922 12.3867C21.3125 11.6445 21.4727 10.8516 21.4727 10.0078C21.4727 8.86719 21.1953 7.83203 20.6406 6.90234C20.0859 5.97266 19.3398 5.23438 18.4023 4.6875C17.4648 4.13281 16.4297 3.85547 15.2969 3.85547C14.1484 3.85547 13.1055 4.13281 12.168 4.6875C11.2305 5.23438 10.4844 5.97266 9.92969 6.90234C9.38281 7.83203 9.10938 8.86719 9.10938 10.0078C9.11719 11.1328 9.39453 12.1602 9.94141 13.0898C10.4961 14.0195 11.2383 14.7656 12.168 15.3281C13.1055 15.8906 14.1484 16.1719 15.2969 16.1719ZM15.2969 12.1875C14.6953 12.1875 14.1758 11.9766 13.7383 11.5547C13.3086 11.125 13.0938 10.6094 13.0938 10.0078C13.0938 9.40625 13.3086 8.89453 13.7383 8.47266C14.1758 8.04297 14.6953 7.82812 15.2969 7.82812C15.8984 7.82812 16.4141 8.04297 16.8438 8.47266C17.2734 8.89453 17.4883 9.40625 17.4883 10.0078C17.4883 10.6094 17.2734 11.125 16.8438 11.5547C16.4141 11.9766 15.8984 12.1875 15.2969 12.1875Z" fill="#BBBBBB"/>
</svg>
