<svg width="24" height="24" viewBox="0 0 24 24" fill="none" xmlns="http://www.w3.org/2000/svg">
<path d="M12 20.5078C7.53125 20.5078 3.85156 16.8281 3.85156 12.3594C3.85156 7.89844 7.53125 4.21094 11.9922 4.21094C16.4609 4.21094 20.1484 7.89844 20.1484 12.3594C20.1484 16.8281 16.4688 20.5078 12 20.5078ZM9.59375 11.5938C10.1094 11.5938 10.5625 11.1328 10.5625 10.5C10.5625 9.85156 10.1094 9.38281 9.59375 9.38281C9.08594 9.38281 8.65625 9.85156 8.65625 10.5C8.65625 11.1328 9.08594 11.5938 9.59375 11.5938ZM14.3984 11.5938C14.9062 11.5938 15.3594 11.1328 15.3594 10.5C15.3594 9.85156 14.9062 9.38281 14.3984 9.38281C13.8828 9.38281 13.4453 9.85156 13.4453 10.5C13.4453 11.1328 13.8828 11.5938 14.3984 11.5938ZM12 16.3047C13.7188 16.3047 14.875 15.1641 14.875 14.6094C14.875 14.4062 14.6719 14.3203 14.4844 14.3984C13.875 14.7031 13.1875 15.0781 12 15.0781C10.8047 15.0781 10.1094 14.7109 9.50781 14.3984C9.32812 14.3125 9.125 14.4062 9.125 14.6094C9.125 15.1641 10.2734 16.3047 12 16.3047Z" fill="url(#paint0_linear_200_52192)"/>
<defs>
<linearGradient id="paint0_linear_200_52192" x1="12" y1="0" x2="12" y2="24" gradientUnits="userSpaceOnUse">
<stop stop-color="#00E5A0"/>
<stop offset="1" stop-color="#007753"/>
</linearGradient>
</defs>
</svg>
