<svg width="24" height="24" viewBox="0 0 24 24" fill="none" xmlns="http://www.w3.org/2000/svg">
<path d="M12 13.8828C11.6484 13.8828 11.3203 13.75 10.8828 13.5L4.84375 10C4.15625 9.59375 3.83594 9.24219 3.83594 8.69531C3.83594 8.14844 4.15625 7.79688 4.84375 7.39062L10.8828 3.89062C11.3203 3.64062 11.6484 3.51562 12 3.51562C12.3438 3.51562 12.6719 3.64062 13.1094 3.89062L19.1562 7.39062C19.8359 7.79688 20.1562 8.14844 20.1562 8.69531C20.1562 9.24219 19.8359 9.59375 19.1562 10L13.1094 13.5C12.6719 13.75 12.3438 13.8828 12 13.8828ZM12 17.7656C11.6719 17.7656 11.3828 17.6172 10.9844 17.3828L4.51562 13.5781C4.07812 13.3203 3.83594 12.9766 3.83594 12.5625C3.83594 12.1484 4.09375 11.8203 4.39844 11.625L11.4453 15.7109C11.6641 15.8438 11.8281 15.9219 12 15.9219C12.1641 15.9219 12.3281 15.8438 12.5469 15.7109L19.5938 11.625C19.9062 11.8203 20.1641 12.1484 20.1641 12.5625C20.1641 12.9766 19.9219 13.3203 19.4766 13.5781L13.0078 17.3828C12.6094 17.6172 12.3203 17.7656 12 17.7656ZM12 21.4453C11.6719 21.4453 11.3828 21.2969 10.9844 21.0625L4.51562 17.2656C4.07812 17.0078 3.83594 16.6562 3.83594 16.2422C3.83594 15.8281 4.09375 15.5 4.39844 15.3047L11.4453 19.3984C11.6641 19.5234 11.8281 19.6016 12 19.6016C12.1641 19.6016 12.3281 19.5234 12.5469 19.3984L19.5938 15.3047C19.9062 15.5 20.1641 15.8281 20.1641 16.2422C20.1641 16.6562 19.9141 17.0078 19.4766 17.2656L13.0078 21.0625C12.6094 21.2969 12.3203 21.4453 12 21.4453Z" fill="url(#paint0_linear_200_56588)"/>
<defs>
<linearGradient id="paint0_linear_200_56588" x1="12" y1="0" x2="12" y2="24" gradientUnits="userSpaceOnUse">
<stop stop-color="#CF4C00"/>
<stop offset="1" stop-color="#FFBD62"/>
</linearGradient>
</defs>
</svg>
