<svg width="21" height="20" viewBox="0 0 21 20" fill="none" xmlns="http://www.w3.org/2000/svg">
<g clip-path="url(#clip0_436_1985)">
<path d="M10.5 18.5309C5.90202 18.5309 2.09342 14.7305 2.09342 10.1243C2.09342 5.52637 5.89388 1.71777 10.4919 1.71777C15.098 1.71777 18.9066 5.52637 18.9066 10.1243C18.9066 14.7305 15.098 18.5309 10.5 18.5309ZM10.5 12.932C12.8193 12.932 14.6097 13.7539 15.4642 14.7061C16.5791 13.5098 17.2546 11.8984 17.2546 10.1243C17.2546 6.38086 14.2354 3.37793 10.4919 3.37793C6.74837 3.37793 3.75358 6.38086 3.75358 10.1243C3.75358 11.8984 4.42904 13.5098 5.53581 14.7061C6.3903 13.7539 8.18066 12.932 10.5 12.932ZM10.5 11.5973C8.92936 11.5811 7.70866 10.2627 7.70052 8.51302C7.69238 6.86914 8.9375 5.50195 10.5 5.50195C12.0706 5.50195 13.2995 6.86914 13.2995 8.51302C13.2995 10.2627 12.0788 11.6055 10.5 11.5973Z" fill="#F6F2F6"/>
</g>
<defs>
<clipPath id="clip0_436_1985">
<rect width="20" height="20" fill="white" transform="translate(0.5)"/>
</clipPath>
</defs>
</svg>
