<svg width="14" height="14" viewBox="0 0 14 14" fill="none" xmlns="http://www.w3.org/2000/svg">
<path d="M0.243164 8.61426C0.243164 5.8252 2.12305 3.9043 5.21973 3.9043H9.31445L10.8799 3.97266L9.75195 3.0293L8.15234 1.4707C7.99512 1.31348 7.89258 1.12891 7.89258 0.869141C7.89258 0.397461 8.22754 0.0488281 8.72656 0.0488281C8.93848 0.0488281 9.1709 0.144531 9.3418 0.31543L13.2041 4.12305C13.3682 4.28711 13.4639 4.51953 13.4639 4.75195C13.4639 4.98438 13.3682 5.22363 13.2041 5.3877L9.3418 9.18848C9.1709 9.35938 8.93848 9.45508 8.72656 9.45508C8.22754 9.45508 7.89258 9.10645 7.89258 8.63477C7.89258 8.375 7.99512 8.19043 8.15234 8.0332L9.75195 6.48145L10.8799 5.53809L9.31445 5.60645H5.21973C3.12109 5.60645 1.9248 6.83008 1.9248 8.55957C1.9248 10.2959 3.12109 11.5605 5.21973 11.5605H6.82617C7.33203 11.5605 7.69434 11.9365 7.69434 12.4082C7.69434 12.8799 7.33203 13.2627 6.82617 13.2627H5.1377C2.08887 13.2627 0.243164 11.4238 0.243164 8.61426Z" fill="white"/>
</svg>
