<svg width="18" height="17" viewBox="0 0 18 17" fill="none" xmlns="http://www.w3.org/2000/svg">
<path d="M9.14844 16.6094C4.59375 16.6094 0.898438 12.9141 0.898438 8.35938C0.898438 3.80469 4.59375 0.109375 9.14844 0.109375C13.7031 0.109375 17.3984 3.80469 17.3984 8.35938C17.3984 12.9141 13.7031 16.6094 9.14844 16.6094ZM8.28906 12.2812C8.625 12.2812 8.92969 12.1094 9.13281 11.8125L12.7578 6.26562C12.8984 6.0625 12.9766 5.85156 12.9766 5.65625C12.9766 5.17188 12.5469 4.82812 12.0781 4.82812C11.7734 4.82812 11.5156 4.99219 11.3125 5.32031L8.26562 10.1641L6.90625 8.48438C6.69531 8.23438 6.47656 8.125 6.19531 8.125C5.71875 8.125 5.32812 8.50781 5.32812 8.99219C5.32812 9.21875 5.39844 9.41406 5.57812 9.63281L7.41406 11.8203C7.66406 12.125 7.9375 12.2812 8.28906 12.2812Z" fill="white"/>
</svg>
